<svg xmlns="http://www.w3.org/2000/svg" viewBox="0 0 680 830"><defs><linearGradient id="body-green" x1="0" x2="1" y1="0" y2="1"><stop offset="0%" stop-color="#1a3d2a"/><stop offset="50%" stop-color="#0f2818"/><stop offset="100%" stop-color="#051410"/></linearGradient><linearGradient id="suit-bright-green" x1="0" x2="1" y1="0" y2="1"><stop offset="0%" stop-color="#2d5a3d"/><stop offset="50%" stop-color="#1a3828"/><stop offset="100%" stop-color="#0d1f16"/></linearGradient><linearGradient id="light-green" x1="0" x2="1" y1="0" y2="0"><stop offset="0%" stop-color="#001a05"/><stop offset="40%" stop-color="#66ff9f"/><stop offset="60%" stop-color="#80ff9f"/><stop offset="100%" stop-color="#001a05"/></linearGradient><linearGradient id="skin-tan" x1="0" x2="0" y1="0" y2="1"><stop offset="0%" stop-color="#f0c8a8"/><stop offset="100%" stop-color="#d4a070"/></linearGradient><linearGradient id="hair-dark" x1="0" x2="0" y1="0" y2="1"><stop offset="0%" stop-color="#1a2d1a"/><stop offset="100%" stop-color="#050d08"/></linearGradient><filter id="blur-soft"><feGaussianBlur stdDeviation="2.5"/></filter><filter id="blur-glow"><feGaussianBlur stdDeviation="6"/></filter><radialGradient id="glow-green" cx="50%" cy="50%" r="50%"><stop offset="0%" stop-color="#66ff9f" stop-opacity=".08"/><stop offset="100%" stop-color="#66ff9f" stop-opacity="0"/></radialGradient></defs><ellipse cx="340" cy="520" fill="url(#glow-green)" filter="url(#blur-glow)" rx="180" ry="240" style="stroke:none;opacity:1"/><ellipse cx="340" cy="370" fill="#66ff9f" filter="url(#blur-glow)" opacity=".03" rx="150" ry="200"/><rect width="50" height="360" x="460" y="170" fill="#66ff9f" filter="url(#blur-glow)" opacity=".04" rx="25" transform="rotate(-15 485 350)"/><path fill="url(#body-green)" d="M282 318q-2 62-4 132-2 60 0 120 2 40 17 70l45 8 45-8q15-30 17-70 2-60 0-120-2-70-4-132-28-10-58-12-30 2-58 12" style="stroke:none"/><path fill="url(#suit-bright-green)" d="M295 325q-5 45-5 95 0 40 4 70l46 8 46-8q4-30 4-70 0-50-5-95-20-10-45-11-25 1-45 11" opacity=".7" style="stroke:none"/><g fill="none" stroke="#66ff9f" stroke-width=".6" opacity=".3"><path d="M295 340q15-4 30 0 7 3 15 0 8-4 15 0 15 3 30 0m-92 16q15-4 30 0 9 3 17 0 8-4 17 0 15 3 30 0m-95 16q16-4 32 0 8 3 16 0 8-4 16 0 16 3 32 0m-96 16q16-4 32 0 8 3 16 0 8-4 16 0 16 3 32 0m-95 16q15-4 31 0 8 3 16 0 8-4 16 0 15 3 31 0"/></g><rect width="90" height="2.5" x="295" y="325" fill="#66ff9f" opacity=".8" rx="1.2"/><rect width="90" height="1.5" x="295" y="345" fill="#80ff9f" opacity=".5" rx=".7"/><rect width="90" height="2" x="295" y="380" fill="#66ff9f" opacity=".6" rx="1"/><rect width="90" height="1.5" x="295" y="420" fill="#80ff9f" opacity=".5" rx=".7"/><rect width="90" height="2" x="295" y="460" fill="#66ff9f" opacity=".55" rx="1"/><rect width="90" height="1.5" x="295" y="500" fill="#80ff9f" opacity=".45" rx=".7"/><rect width="36" height="28" x="322" y="348" fill="#0d1810" stroke="#66ff9f" stroke-width="1.5" rx="7"/><ellipse cx="340" cy="362" fill="#051410" stroke="#80ff9f" stroke-width="1.2" rx="11" ry="9"/><ellipse cx="340" cy="362" fill="#1a3d2a" rx="6" ry="5"/><ellipse cx="340" cy="362" fill="#66ff9f" opacity=".8" rx="5" ry="3.5"/><rect width="48" height="1.5" x="316" y="342" fill="#66ff9f" opacity=".4" rx=".7"/><rect width="48" height="1.5" x="316" y="366" fill="#66ff9f" opacity=".4" rx=".7"/><circle cx="302" cy="355" r="4" fill="#051410" stroke="#66ff9f"/><circle cx="302" cy="355" r="2" fill="#2d5a3d"/><circle cx="378" cy="355" r="4" fill="#051410" stroke="#66ff9f"/><circle cx="378" cy="355" r="2" fill="#2d5a3d"/><rect width="2" height="28" x="326" y="348" fill="#66ff9f" opacity=".5" rx="1"/><rect width="2" height="28" x="352" y="348" fill="#66ff9f" opacity=".5" rx="1"/><rect width="120" height="22" x="280" y="540" fill="#051410" stroke="#66ff9f" stroke-width="1.2" rx="6"/><rect width="120" height="2" x="280" y="548" fill="#66ff9f" opacity=".7" rx="1"/><rect width="120" height="1.5" x="280" y="555" fill="#66ff9f" opacity=".4" rx=".7"/><rect width="36" height="18" x="322" y="542" fill="#0d1810" stroke="#80ff9f" stroke-width="1.5" rx="5"/><path stroke="#80ff9f" stroke-width="1.5" d="M330 551h20m-10-7v14" opacity=".9"/><circle cx="340" cy="551" r="2.5" fill="#80ff9f" opacity=".8"/><path fill="none" stroke="url(#light-green)" stroke-linecap="round" stroke-width="28" d="M282 320q-27 10-52 35-20 20-38 53"/><path fill="none" stroke="url(#suit-bright-green)" stroke-linecap="round" stroke-width="24" d="M282 320q-27 10-52 35-20 20-38 53"/><path fill="none" stroke="#2d5a3d" d="M278 326q-26 9-50 32" opacity=".5"/><ellipse cx="165" cy="466" fill="#051410" stroke="#66ff9f" stroke-width="1.5" rx="18" ry="12" transform="rotate(-20 165 466)"/><ellipse cx="165" cy="466" fill="#0d1810" rx="13" ry="8" transform="rotate(-20 165 466)"/><path stroke="#80ff9f" stroke-width="1.5" d="m148 462 34 8" opacity=".8" transform="rotate(-20 165 466)"/><g fill="#d4a070" stroke="#66ff9f" stroke-width=".5"><rect width="9" height="18" x="148" y="468" rx="3" transform="rotate(-30 152 477)"/><rect width="9" height="20" x="160" y="472" rx="3" transform="rotate(-25 164 482)"/><rect width="8" height="16" x="172" y="470" rx="3" transform="rotate(-20 176 478)"/></g><path fill="none" stroke="url(#light-green)" stroke-linecap="round" stroke-width="28" d="M398 320q27 10 52 35 20 20 38 53"/><path fill="none" stroke="url(#suit-bright-green)" stroke-linecap="round" stroke-width="24" d="M398 320q27 10 52 35 20 20 38 53"/><path fill="none" stroke="#2d5a3d" d="M402 326q26 9 50 32" opacity=".5"/><ellipse cx="515" cy="466" fill="#051410" stroke="#66ff9f" stroke-width="1.5" rx="18" ry="12" transform="rotate(20 515 466)"/><ellipse cx="515" cy="466" fill="#0d1810" rx="13" ry="8" transform="rotate(20 515 466)"/><path stroke="#80ff9f" stroke-width="1.5" d="m498 462 34 8" opacity=".8" transform="rotate(20 515 466)"/><g fill="#d4a070" stroke="#66ff9f" stroke-width=".5"><rect width="9" height="18" x="523" y="468" rx="3" transform="rotate(30 527 477)"/><rect width="9" height="20" x="511" y="472" rx="3" transform="rotate(25 515 482)"/><rect width="8" height="16" x="499" y="470" rx="3" transform="rotate(20 503 478)"/></g><rect width="46" height="100" x="282" y="562" fill="url(#body-green)" stroke="#1a3d2a" stroke-width=".7" rx="10"/><rect width="42" height="2" x="284" y="580" fill="#66ff9f" opacity=".6" rx="1"/><rect width="42" height="1.5" x="284" y="596" fill="#80ff9f" opacity=".4" rx=".7"/><rect width="54" height="30" x="278" y="656" fill="#051410" stroke="#66ff9f" stroke-width="1.2" rx="12"/><rect width="46" height="2" x="282" y="662" fill="#80ff9f" opacity=".8" rx="1"/><rect width="34" height="1.5" x="288" y="670" fill="#80ff9f" opacity=".5" rx=".7"/><rect width="42" height="100" x="284" y="682" fill="url(#body-green)" stroke="#1a3d2a" stroke-width=".7" rx="8"/><rect width="38" height="2" x="286" y="700" fill="#80ff9f" opacity=".5" rx="1"/><rect width="38" height="1.5" x="286" y="716" fill="#80ff9f" opacity=".35" rx=".7"/><rect width="54" height="32" x="278" y="778" fill="#051410" stroke="#2d5a3d" stroke-width=".8" rx="8"/><rect width="62" height="14" x="274" y="802" fill="#0d1810" stroke="#1a3d2a" stroke-width=".7" rx="5"/><rect width="54" height="2" x="278" y="804" fill="#66ff9f" opacity=".6" rx="1"/><rect width="46" height="100" x="352" y="562" fill="url(#body-green)" stroke="#1a3d2a" stroke-width=".7" rx="10"/><rect width="42" height="2" x="354" y="580" fill="#66ff9f" opacity=".6" rx="1"/><rect width="42" height="1.5" x="354" y="596" fill="#80ff9f" opacity=".4" rx=".7"/><rect width="54" height="30" x="348" y="656" fill="#051410" stroke="#66ff9f" stroke-width="1.2" rx="12"/><rect width="46" height="2" x="352" y="662" fill="#80ff9f" opacity=".8" rx="1"/><rect width="34" height="1.5" x="358" y="670" fill="#80ff9f" opacity=".5" rx=".7"/><rect width="42" height="100" x="354" y="682" fill="url(#body-green)" stroke="#1a3d2a" stroke-width=".7" rx="8"/><rect width="38" height="2" x="356" y="700" fill="#80ff9f" opacity=".5" rx="1"/><rect width="38" height="1.5" x="356" y="716" fill="#80ff9f" opacity=".35" rx=".7"/><rect width="54" height="32" x="348" y="778" fill="#051410" stroke="#2d5a3d" stroke-width=".8" rx="8"/><rect width="62" height="14" x="344" y="802" fill="#0d1810" stroke="#1a3d2a" stroke-width=".7" rx="5"/><rect width="54" height="2" x="348" y="804" fill="#66ff9f" opacity=".6" rx="1"/><rect width="36" height="66" x="322" y="244" fill="url(#skin-tan)" rx="8"/><path fill="none" stroke="#80ff9f" stroke-width="1.5" d="M326 248q-8 10-10 32-2 16 2 32" opacity=".8"/><path fill="none" stroke="#80ff9f" stroke-width=".8" d="M330 246q-8 10-10 32-2 18 2 36" opacity=".4"/><circle cx="317" cy="268" r="2.5" fill="#80ff9f" opacity=".9"/><circle cx="316" cy="286" r="2" fill="#80ff9f" opacity=".8"/><circle cx="318" cy="302" r="2" fill="#80ff9f" opacity=".7"/><path fill="none" stroke="#80ff9f" stroke-width="1.2" d="M354 248q8 10 10 32 2 16-2 32" opacity=".7"/><circle cx="363" cy="268" r="2.5" fill="#80ff9f" opacity=".9"/><circle cx="364" cy="286" r="2" fill="#80ff9f" opacity=".8"/><path fill="url(#hair-dark)" d="M272 232q-2-32 6-57 14-27 62-31 48 4 62 31 8 25 6 57-18-16-38-20-15-2-30 0-15-2-30 0-20 4-38 20"/><path fill="url(#hair-dark)" stroke="#0d1a0d" stroke-width=".5" d="M272 232q-12 18-14 48 0 20 6 38 4-22 8-40 3-18 6-34Z"/><path fill="url(#hair-dark)" stroke="#0d1a0d" stroke-width=".5" d="M408 232q12 18 14 48 0 20-6 38-4-22-8-40-3-18-6-34Z"/><path fill="none" stroke="#2d5a3d" stroke-width="2" d="M290 150q20-4 50-5 25 1 45 7" opacity=".6"/><ellipse cx="340" cy="222" fill="url(#skin-tan)" rx="62" ry="72"/><path fill="#c89060" d="M285 200q-3 30 3 55 7 17 22 23 15 4 30 4t30-4q15-6 22-23 6-25 3-55-15-10-55-12-40 2-55 12" opacity=".25"/><path fill="#80ff9f" d="m292 208 12-6 4 8-8 8Z" opacity=".85"/><path fill="#66ff9f" d="m288 222 12-6 2 10-12 4Z" opacity=".7"/><path stroke="#b0ff9f" stroke-width="2" d="m280 215 20-3" opacity=".9"/><path fill="#80ff9f" d="m388 208-12-6-4 8 8 8Z" opacity=".85"/><path fill="#66ff9f" d="m392 222-12-6-2 10 12 4Z" opacity=".7"/><path stroke="#b0ff9f" stroke-width="2" d="m400 215-20-3" opacity=".9"/><path fill="#80ff9f" d="m332 178 8-6 8 6-8 6Z" opacity=".8"/><ellipse cx="340" cy="178" fill="#66ff9f" opacity=".7" rx="4" ry="3"/><ellipse cx="312" cy="218" fill="#051410" rx="16" ry="10"/><ellipse cx="312" cy="218" fill="#0d1810" rx="11" ry="7"/><ellipse cx="312" cy="218" fill="#1a3d2a" rx="7" ry="5"/><ellipse cx="312" cy="218" fill="#66ff9f" rx="5" ry="4"/><ellipse cx="312" cy="218" fill="#80ff9f" rx="3" ry="2.5"/><circle cx="312" cy="218" r="1.5" fill="#b0ff9f"/><ellipse cx="315" cy="215" fill="#fff" opacity=".9" rx="2" ry="1.5"/><path fill="none" stroke="#051410" stroke-width="2.5" d="M296 214q16-4 32 0"/><path fill="none" stroke="#051410" stroke-width="1.5" d="M297 222q15 4 30 0"/><path fill="none" stroke="#051410" stroke-linecap="round" stroke-width="3" d="M297 213q8-5 16-3 7-2 15 3"/><ellipse cx="312" cy="218" fill="none" stroke="#66ff9f" stroke-width=".7" opacity=".6" rx="9" ry="7"/><ellipse cx="368" cy="218" fill="#051410" rx="16" ry="10"/><ellipse cx="368" cy="218" fill="#0d1810" rx="11" ry="7"/><ellipse cx="368" cy="218" fill="#1a3d2a" rx="7" ry="5"/><ellipse cx="368" cy="218" fill="#66ff9f" rx="5" ry="4"/><ellipse cx="368" cy="218" fill="#80ff9f" rx="3" ry="2.5"/><circle cx="368" cy="218" r="1.5" fill="#b0ff9f"/><ellipse cx="371" cy="215" fill="#fff" opacity=".9" rx="2" ry="1.5"/><path fill="none" stroke="#051410" stroke-width="2.5" d="M352 214q16-4 32 0"/><path fill="none" stroke="#051410" stroke-width="1.5" d="M353 222q15 4 30 0"/><path fill="none" stroke="#051410" stroke-linecap="round" stroke-width="3" d="M352 213q8-5 16-3 7-2 16 3"/><ellipse cx="368" cy="218" fill="none" stroke="#66ff9f" stroke-width=".7" opacity=".6" rx="9" ry="7"/><path fill="none" stroke="#100010" stroke-linecap="round" stroke-width="4" d="M296 202q12-6 30-2m28 0q18-4 30 2"/><path fill="none" stroke="#b08060" stroke-linecap="round" stroke-width="1.5" d="M335 232q-3 10-5 16 4 4 10 4t10-4q-2-6-5-16"/><path fill="none" stroke="#1a4d2a" stroke-linecap="round" stroke-width="2" d="M316 264q12 4 24 2 12 2 24-2"/><path fill="none" stroke="#1a4d2a" stroke-linecap="round" stroke-width="1.5" d="M355 262q5-4 10 0"/><path fill="#3a5a3a" d="M320 263q10 4 20 2 10 2 20-2-5-3-20-3t-20 3" opacity=".5"/><g opacity=".55"><circle cx="165" cy="280" r="1.5" fill="#80ff9f"/><circle cx="190" cy="320" r="1" fill="#66ff9f"/><circle cx="148" cy="360" r="1.5" fill="#80ff9f"/><circle cx="510" cy="290" r="1.5" fill="#80ff9f"/><circle cx="530" cy="330" r="1" fill="#66ff9f"/><circle cx="498" cy="370" r="1.5" fill="#80ff9f"/><circle cx="240" cy="170" r="1" fill="#80ff9f"/><circle cx="440" cy="155" r="1.2" fill="#66ff9f"/><path stroke="#80ff9f" stroke-width=".7" d="m163 278-5-8m354 18 5-8" opacity=".5"/></g><ellipse cx="340" cy="390" fill="#66ff9f" filter="url(#blur-glow)" opacity=".03" rx="160" ry="200"/><ellipse cx="340" cy="258" fill="#66ff9f" filter="url(#blur-glow)" opacity=".08" rx="70" ry="20"/></svg>